<?xml version="1.0" encoding="utf-8"?>
<svg version="1.1" xmlns:xlink="http://www.w3.org/1999/xlink" width="17px" height="20px" xmlns="http://www.w3.org/2000/svg">
  <g transform="matrix(1 0 0 1 0 -45 )">
    <path d="M 11.7317708333333 0.758928571428572  L 16.2473958333333 5.3125  C 16.3506944444444 5.41666666666667  16.4539930555556 5.55059523809524  16.5572916666667 5.71428571428571  L 11.3333333333333 5.71428571428571  L 11.3333333333333 0.446428571428572  C 11.4956597222222 0.550595238095237  11.6284722222222 0.654761904761902  11.7317708333333 0.758928571428572  Z M 10.2265625 6.83035714285714  C 10.4331597222222 7.03869047619047  10.6840277777778 7.14285714285714  10.9791666666667 7.14285714285714  L 17 7.14285714285714  L 17 18.9285714285714  C 17 19.2261904761905  16.8967013888889 19.4791666666667  16.6901041666667 19.6875  C 16.4835069444444 19.8958333333333  16.2326388888889 20  15.9375 20  L 1.0625 20  C 0.767361111111111 20  0.516493055555556 19.8958333333333  0.309895833333333 19.6875  C 0.103298611111111 19.4791666666667  0 19.2261904761905  0 18.9285714285714  L 0 1.07142857142857  C 0 0.773809523809523  0.103298611111111 0.520833333333333  0.309895833333333 0.3125  C 0.516493055555556 0.104166666666667  0.767361111111111 0  1.0625 0  L 9.91666666666667 0  L 9.91666666666667 6.07142857142857  C 9.91666666666667 6.36904761904762  10.0199652777778 6.62202380952381  10.2265625 6.83035714285714  Z M 12.650390625 15.6138392857143  C 12.716796875 15.546875  12.75 15.4613095238095  12.75 15.3571428571429  L 12.75 14.6428571428571  C 12.75 14.5386904761905  12.716796875 14.453125  12.650390625 14.3861607142857  C 12.583984375 14.3191964285714  12.4991319444444 14.2857142857143  12.3958333333333 14.2857142857143  L 4.60416666666667 14.2857142857143  C 4.50086805555556 14.2857142857143  4.416015625 14.3191964285714  4.349609375 14.3861607142857  C 4.283203125 14.453125  4.25 14.5386904761905  4.25 14.6428571428571  L 4.25 15.3571428571429  C 4.25 15.4613095238095  4.283203125 15.546875  4.349609375 15.6138392857143  C 4.416015625 15.6808035714286  4.50086805555556 15.7142857142857  4.60416666666667 15.7142857142857  L 12.3958333333333 15.7142857142857  C 12.4991319444444 15.7142857142857  12.583984375 15.6808035714286  12.650390625 15.6138392857143  Z M 12.650390625 12.7566964285714  C 12.716796875 12.6897321428571  12.75 12.6041666666667  12.75 12.5  L 12.75 11.7857142857143  C 12.75 11.6815476190476  12.716796875 11.5959821428571  12.650390625 11.5290178571429  C 12.583984375 11.4620535714286  12.4991319444444 11.4285714285714  12.3958333333333 11.4285714285714  L 4.60416666666667 11.4285714285714  C 4.50086805555556 11.4285714285714  4.416015625 11.4620535714286  4.349609375 11.5290178571429  C 4.283203125 11.5959821428571  4.25 11.6815476190476  4.25 11.7857142857143  L 4.25 12.5  C 4.25 12.6041666666667  4.283203125 12.6897321428571  4.349609375 12.7566964285714  C 4.416015625 12.8236607142857  4.50086805555556 12.8571428571429  4.60416666666667 12.8571428571429  L 12.3958333333333 12.8571428571429  C 12.4991319444444 12.8571428571429  12.583984375 12.8236607142857  12.650390625 12.7566964285714  Z M 12.650390625 9.89955357142857  C 12.716796875 9.83258928571429  12.75 9.74702380952381  12.75 9.64285714285714  L 12.75 8.92857142857143  C 12.75 8.82440476190476  12.716796875 8.73883928571429  12.650390625 8.671875  C 12.583984375 8.60491071428571  12.4991319444444 8.57142857142857  12.3958333333333 8.57142857142857  L 4.60416666666667 8.57142857142857  C 4.50086805555556 8.57142857142857  4.416015625 8.60491071428571  4.349609375 8.671875  C 4.283203125 8.73883928571429  4.25 8.82440476190476  4.25 8.92857142857143  L 4.25 9.64285714285714  C 4.25 9.74702380952381  4.283203125 9.83258928571429  4.349609375 9.89955357142857  C 4.416015625 9.96651785714286  4.50086805555556 10  4.60416666666667 10  L 12.3958333333333 10  C 12.4991319444444 10  12.583984375 9.96651785714286  12.650390625 9.89955357142857  Z " fill-rule="nonzero" fill="#cc5600" stroke="none" transform="matrix(1 0 0 1 0 45 )" />
  </g>
</svg>