<?xml version="1.0" encoding="utf-8"?>
<svg version="1.1" xmlns:xlink="http://www.w3.org/1999/xlink" width="22px" height="18px" xmlns="http://www.w3.org/2000/svg">
  <g transform="matrix(1 0 0 1 -1 1 )">
    <path d="M 4.25390625 12.6115056818182  C 4.56082589285714 12.2919034090909  4.71428571428571 11.90625  4.71428571428571 11.4545454545455  C 4.71428571428571 11.0028409090909  4.56082589285714 10.6171875  4.25390625 10.2975852272727  C 3.94698660714286 9.97798295454546  3.57663690476191 9.81818181818182  3.14285714285714 9.81818181818182  C 2.70907738095238 9.81818181818182  2.33872767857143 9.97798295454546  2.03180803571429 10.2975852272727  C 1.72488839285714 10.6171875  1.57142857142857 11.0028409090909  1.57142857142857 11.4545454545455  C 1.57142857142857 11.90625  1.72488839285714 12.2919034090909  2.03180803571429 12.6115056818182  C 2.33872767857143 12.9311079545455  2.70907738095238 13.0909090909091  3.14285714285714 13.0909090909091  C 3.57663690476191 13.0909090909091  3.94698660714286 12.9311079545455  4.25390625 12.6115056818182  Z M 6.61104910714286 6.88423295454545  C 6.91796875 6.56463068181818  7.07142857142857 6.17897727272727  7.07142857142857 5.72727272727273  C 7.07142857142857 5.27556818181818  6.91796875 4.88991477272727  6.61104910714286 4.5703125  C 6.30412946428571 4.25071022727273  5.93377976190476 4.09090909090909  5.5 4.09090909090909  C 5.06622023809524 4.09090909090909  4.69587053571429 4.25071022727273  4.38895089285714 4.5703125  C 4.08203125 4.88991477272727  3.92857142857143 5.27556818181818  3.92857142857143 5.72727272727273  C 3.92857142857143 6.17897727272727  4.08203125 6.56463068181818  4.38895089285714 6.88423295454545  C 4.69587053571429 7.20383522727273  5.06622023809524 7.36363636363636  5.5 7.36363636363636  C 5.93377976190476 7.36363636363636  6.30412946428571 7.20383522727273  6.61104910714286 6.88423295454545  Z M 13.2098214285714 13.0397727272727  C 13.0297619047619 12.5539772727273  12.735119047619 12.1661931818182  12.3258928571429 11.8764204545455  L 13.5658482142857 6.99289772727273  C 13.6149553571429 6.77130681818182  13.5842633928571 6.56463068181818  13.4737723214286 6.37286931818182  C 13.36328125 6.18110795454545  13.2057291666667 6.05539772727273  13.0011160714286 5.99573863636364  C 12.7965029761905 5.93607954545454  12.6000744047619 5.96377840909091  12.4118303571429 6.07883522727273  C 12.2235863095238 6.19389204545455  12.100818452381 6.36221590909091  12.0435267857143 6.58380681818182  L 10.8035714285714 11.4673295454545  C 10.3125 11.5099431818182  9.87462797619048 11.6953125  9.48995535714286 12.0234375  C 9.10528273809524 12.3515625  8.84747023809524 12.7713068181818  8.71651785714286 13.2826704545455  C 8.55282738095238 13.9389204545455  8.63467261904762 14.5610795454545  8.96205357142857 15.1491477272727  C 9.28943452380952 15.7372159090909  9.76822916666667 16.1164772727273  10.3984375 16.2869318181818  C 11.0286458333333 16.4573863636364  11.6261160714286 16.3721590909091  12.1908482142857 16.03125  C 12.7555803571429 15.6903409090909  13.1197916666667 15.1917613636364  13.2834821428571 14.5355113636364  C 13.4144345238095 14.0241477272727  13.389880952381 13.5255681818182  13.2098214285714 13.0397727272727  Z M 19.9681919642857 12.6115056818182  C 20.2751116071429 12.2919034090909  20.4285714285714 11.90625  20.4285714285714 11.4545454545455  C 20.4285714285714 11.0028409090909  20.2751116071429 10.6171875  19.9681919642857 10.2975852272727  C 19.6612723214286 9.97798295454546  19.2909226190476 9.81818181818182  18.8571428571429 9.81818181818182  C 18.4233630952381 9.81818181818182  18.0530133928571 9.97798295454546  17.74609375 10.2975852272727  C 17.4391741071429 10.6171875  17.2857142857143 11.0028409090909  17.2857142857143 11.4545454545455  C 17.2857142857143 11.90625  17.4391741071429 12.2919034090909  17.74609375 12.6115056818182  C 18.0530133928571 12.9311079545455  18.4233630952381 13.0909090909091  18.8571428571429 13.0909090909091  C 19.2909226190476 13.0909090909091  19.6612723214286 12.9311079545455  19.9681919642857 12.6115056818182  Z M 12.1110491071429 4.4296875  C 12.41796875 4.11008522727273  12.5714285714286 3.72443181818182  12.5714285714286 3.27272727272727  C 12.5714285714286 2.82102272727273  12.41796875 2.43536931818182  12.1110491071429 2.11576704545455  C 11.8041294642857 1.79616477272727  11.4337797619048 1.63636363636364  11 1.63636363636364  C 10.5662202380952 1.63636363636364  10.1958705357143 1.79616477272727  9.88895089285714 2.11576704545455  C 9.58203125 2.43536931818182  9.42857142857143 2.82102272727273  9.42857142857143 3.27272727272727  C 9.42857142857143 3.72443181818182  9.58203125 4.11008522727273  9.88895089285714 4.4296875  C 10.1958705357143 4.74928977272727  10.5662202380952 4.90909090909091  11 4.90909090909091  C 11.4337797619048 4.90909090909091  11.8041294642857 4.74928977272727  12.1110491071429 4.4296875  Z M 17.6110491071429 6.88423295454545  C 17.91796875 6.56463068181818  18.0714285714286 6.17897727272727  18.0714285714286 5.72727272727273  C 18.0714285714286 5.27556818181818  17.91796875 4.88991477272727  17.6110491071429 4.5703125  C 17.3041294642857 4.25071022727273  16.9337797619048 4.09090909090909  16.5 4.09090909090909  C 16.0662202380952 4.09090909090909  15.6958705357143 4.25071022727273  15.3889508928571 4.5703125  C 15.08203125 4.88991477272727  14.9285714285714 5.27556818181818  14.9285714285714 5.72727272727273  C 14.9285714285714 6.17897727272727  15.08203125 6.56463068181818  15.3889508928571 6.88423295454545  C 15.6958705357143 7.20383522727273  16.0662202380952 7.36363636363636  16.5 7.36363636363636  C 16.9337797619048 7.36363636363636  17.3041294642857 7.20383522727273  17.6110491071429 6.88423295454545  Z M 21.1283482142857 7.00568181818182  C 21.7094494047619 8.42045454545455  22 9.90340909090909  22 11.4545454545455  C 22 13.6789772727273  21.4229910714286 15.7372159090909  20.2689732142857 17.6292613636364  C 20.1134672619048 17.8764204545455  19.8924851190476 18  19.6060267857143 18  L 2.39397321428571 18  C 2.10751488095238 18  1.88653273809524 17.8764204545455  1.73102678571429 17.6292613636364  C 0.577008928571429 15.7457386363636  0 13.6875  0 11.4545454545455  C 0 9.90340909090909  0.290550595238095 8.42045454545455  0.871651785714286 7.00568181818182  C 1.45275297619048 5.59090909090909  2.234375 4.37215909090909  3.21651785714286 3.34943181818182  C 4.19866071428571 2.32670454545455  5.36904761904762 1.51278409090909  6.72767857142857 0.907670454545454  C 8.08630952380952 0.302556818181817  9.51041666666667 0  11 0  C 12.4895833333333 0  13.9136904761905 0.302556818181817  15.2723214285714 0.907670454545454  C 16.6309523809524 1.51278409090909  17.8013392857143 2.32670454545455  18.7834821428571 3.34943181818182  C 19.765625 4.37215909090909  20.5472470238095 5.59090909090909  21.1283482142857 7.00568181818182  Z " fill-rule="nonzero" fill="#a00000" stroke="none" transform="matrix(1 0 0 1 1 -1 )" />
  </g>
</svg>