<?xml version="1.0" encoding="utf-8"?>
<svg version="1.1" xmlns:xlink="http://www.w3.org/1999/xlink" width="20px" height="17px" xmlns="http://www.w3.org/2000/svg">
  <g transform="matrix(1 0 0 1 -1 -146 )">
    <path d="M 13.6495535714286 9.529296875  C 13.7834821428571 9.78754340277778  13.9955357142857 9.91666666666667  14.2857142857143 9.91666666666667  L 17.6897321428571 9.91666666666667  C 17.6525297619048 9.9609375  17.6153273809524 9.99967447916667  17.578125 10.0328776041667  C 17.5409226190476 10.0660807291667  17.5074404761905 10.09375  17.4776785714286 10.1158854166667  L 17.4441964285714 10.16015625  L 10.4910714285714 16.80078125  C 10.3571428571429 16.93359375  10.1934523809524 17  10 17  C 9.80654761904762 17  9.64285714285714 16.93359375  9.50892857142857 16.80078125  L 2.54464285714286 10.1380208333333  C 2.50744047619048 10.1232638888889  2.42931547619048 10.0494791666667  2.31026785714286 9.91666666666667  L 6.42857142857143 9.91666666666667  C 6.59226190476191 9.91666666666667  6.73921130952381 9.86686197916667  6.86941964285714 9.76725260416667  C 6.99962797619048 9.66764322916667  7.08333333333333 9.54036458333333  7.12053571428571 9.38541666666667  L 7.90178571428571 6.275390625  L 10.0223214285714 13.6575520833333  C 10.0669642857143 13.8051215277778  10.1525297619048 13.9268663194444  10.2790178571429 14.0227864583333  C 10.405505952381 14.1187065972222  10.5505952380952 14.1666666666667  10.7142857142857 14.1666666666667  C 10.8705357142857 14.1666666666667  11.0119047619048 14.1187065972222  11.1383928571429 14.0227864583333  C 11.264880952381 13.9268663194444  11.3504464285714 13.8051215277778  11.3950892857143 13.6575520833333  L 13.0245535714286 8.28971354166667  L 13.6495535714286 9.529296875  Z M 18.5825892857143 1.37239583333333  C 19.5275297619048 2.28732638888889  20 3.55642361111111  20 5.1796875  C 20 6.24956597222222  19.6168154761905 7.35633680555555  18.8504464285714 8.5  L 14.7321428571429 8.5  L 13.4933035714286 6.05403645833333  C 13.4337797619048 5.92860243055556  13.3389136904762 5.82899305555556  13.2087053571429 5.75520833333333  C 13.0784970238095 5.68142361111111  12.9427083333333 5.65190972222222  12.8013392857143 5.66666666666667  C 12.4665178571429 5.70355902777778  12.2581845238095 5.87326388888889  12.1763392857143 6.17578125  L 10.7366071428571 10.9348958333333  L 8.54910714285714 3.34244791666667  C 8.50446428571429 3.19487847222222  8.41703869047619 3.07313368055555  8.28683035714286 2.97721354166667  C 8.15662202380952 2.88129340277778  8.00967261904762 2.83333333333333  7.84598214285714 2.83333333333333  C 7.68229166666667 2.83333333333333  7.53720238095238 2.88313802083333  7.41071428571429 2.98274739583333  C 7.28422619047619 3.08235677083333  7.20238095238095 3.20963541666667  7.16517857142857 3.36458333333333  L 5.87053571428571 8.5  L 1.14955357142857 8.5  C 0.383184523809524 7.35633680555555  0 6.24956597222222  0 5.1796875  C 0 3.55642361111111  0.472470238095238 2.28732638888889  1.41741071428571 1.37239583333333  C 2.36235119047619 0.457465277777778  3.66815476190476 0  5.33482142857143 0  C 5.79613095238095 0  6.26674107142857 0.0793185763888878  6.74665178571429 0.237955729166667  C 7.2265625 0.396592881944443  7.67299107142857 0.610568576388888  8.0859375 0.8798828125  C 8.49888392857143 1.14919704861111  8.85416666666667 1.40190972222222  9.15178571428571 1.63802083333333  C 9.44940476190476 1.87413194444444  9.73214285714286 2.125  10 2.390625  C 10.2678571428571 2.125  10.5505952380952 1.87413194444444  10.8482142857143 1.63802083333333  C 11.1458333333333 1.40190972222222  11.5011160714286 1.14919704861111  11.9140625 0.8798828125  C 12.3270089285714 0.610568576388888  12.7734375 0.396592881944443  13.2533482142857 0.237955729166667  C 13.7332589285714 0.0793185763888878  14.203869047619 0  14.6651785714286 0  C 16.3318452380952 0  17.6376488095238 0.457465277777778  18.5825892857143 1.37239583333333  Z " fill-rule="nonzero" fill="#28714d" stroke="none" transform="matrix(1 0 0 1 1 146 )" />
  </g>
</svg>