<?xml version="1.0" encoding="utf-8"?>
<svg version="1.1" xmlns:xlink="http://www.w3.org/1999/xlink" width="23px" height="23px" xmlns="http://www.w3.org/2000/svg">
  <g transform="matrix(1 0 0 1 0 -189 )">
    <path d="M 7.03348214285714 0.911272321428571  C 8.45386904761905 0.30375744047619  9.94270833333333 0  11.5 0  C 13.0572916666667 0  14.546130952381 0.30375744047619  15.9665178571429 0.911272321428571  C 17.3869047619048 1.51878720238095  18.6104910714286 2.3359375  19.6372767857143 3.36272321428571  C 20.6640625 4.38950892857143  21.4812127976191 5.61309523809524  22.0887276785714 7.03348214285714  C 22.6962425595238 8.45386904761905  23 9.94270833333333  23 11.5  C 23 13.0487351190476  22.6983816964286 14.5332961309524  22.0951450892857 15.9536830357143  C 21.4919084821429 17.3740699404762  20.6768973214286 18.59765625  19.6501116071429 19.6244419642857  C 18.6233258928571 20.6512276785714  17.3997395833333 21.4705171130952  15.9793526785714 22.0823102678571  C 14.5589657738095 22.694103422619  13.0658482142857 23  11.5 23  C 9.93415178571428 23  8.44103422619048 22.6962425595238  7.02064732142857 22.0887276785714  C 5.60026041666667 21.481212797619  4.37881324404762 20.6619233630952  3.35630580357143 19.630859375  C 2.33379836309524 18.5997953869048  1.51878720238095 17.376209077381  0.911272321428571 15.9601004464286  C 0.30375744047619 14.5439918154762  0 13.0572916666667  0 11.5  C 0 9.94270833333333  0.30375744047619 8.45386904761905  0.911272321428571 7.03348214285714  C 1.51878720238095 5.61309523809524  2.3359375 4.38950892857143  3.36272321428571 3.36272321428571  C 4.38950892857143 2.3359375  5.61309523809524 1.51878720238095  7.03348214285714 0.911272321428571  Z M 15.5172991071429 13.1428571428571  C 17.5708705357143 13.1428571428571  18.8800223214286 14.5418526785714  19.4447544642857 17.33984375  C 20.7196800595238 15.5857514880952  21.3571428571429 13.6391369047619  21.3571428571429 11.5  C 21.3571428571429 10.1651785714286  21.0961681547619 8.89025297619047  20.57421875 7.67522321428571  C 20.0522693452381 6.46019345238095  19.3506324404762 5.41201636904762  18.4693080357143 4.53069196428571  C 17.5879836309524 3.64936755952381  16.539806547619 2.9477306547619  15.3247767857143 2.42578125  C 14.1097470238095 1.90383184523809  12.8348214285714 1.64285714285714  11.5 1.64285714285714  C 10.1651785714286 1.64285714285714  8.89025297619048 1.90383184523809  7.67522321428571 2.42578125  C 6.46019345238095 2.9477306547619  5.41201636904762 3.64936755952381  4.53069196428571 4.53069196428571  C 3.64936755952381 5.41201636904762  2.9477306547619 6.46019345238095  2.42578125 7.67522321428571  C 1.9038318452381 8.89025297619047  1.64285714285714 10.1651785714286  1.64285714285714 11.5  C 1.64285714285714 13.6391369047619  2.28031994047619 15.5857514880952  3.55524553571429 17.33984375  C 4.11997767857143 14.5418526785714  5.42912946428571 13.1428571428571  7.48270089285714 13.1428571428571  C 8.60360863095238 14.2380952380952  9.94270833333333 14.7857142857143  11.5 14.7857142857143  C 13.0572916666667 14.7857142857143  14.3963913690476 14.2380952380952  15.5172991071429 13.1428571428571  Z M 14.9846540178571 12.5203683035714  C 15.947265625 11.5577566964286  16.4285714285714 10.3962053571429  16.4285714285714 9.03571428571429  C 16.4285714285714 7.67522321428571  15.947265625 6.513671875  14.9846540178571 5.55106026785714  C 14.0220424107143 4.58844866071429  12.8604910714286 4.10714285714286  11.5 4.10714285714286  C 10.1395089285714 4.10714285714286  8.97795758928572 4.58844866071429  8.01534598214286 5.55106026785714  C 7.052734375 6.513671875  6.57142857142857 7.67522321428571  6.57142857142857 9.03571428571429  C 6.57142857142857 10.3962053571429  7.052734375 11.5577566964286  8.01534598214286 12.5203683035714  C 8.97795758928572 13.4829799107143  10.1395089285714 13.9642857142857  11.5 13.9642857142857  C 12.8604910714286 13.9642857142857  14.0220424107143 13.4829799107143  14.9846540178571 12.5203683035714  Z " fill-rule="nonzero" fill="#0d5da6" stroke="none" transform="matrix(1 0 0 1 0 189 )" />
  </g>
</svg>